# xmcd
#
# Track frame offsets: 
#        150
#        17774
#        32857
#        47383
#        61197
#        76632
#        92838
#        108247
#        118674
#        135150
#        152056
#        165736
#        187158
#        201801
#        223701
#
# Disc length: 3163 seconds
#
# Revision: 0
# Processed by: cddbd v1.5PL3 Copyright (c) Steve Scherf et al.
# Submitted via: ExactAudioCopy v0.90b4
#
DISCID=be0c590f
DTITLE=Robert Lockwood Jr. and Boogie Bill Webb - The Blues of Robert 
DTITLE=Lockwood Jr. and Boogie Bill Webb
DYEAR=2004
DGENRE=Blues
TTITLE0=In the Evenning when the Sun goes down
TTITLE1=Come on Baby, take a Walk with me
TTITLE2=Exactly Like You
TTITLE3=Driving Wheel
TTITLE4=They gonna Ball tonight
TTITLE5=Kind hearted Woman
TTITLE6=She's little and she's low
TTITLE7=Lockwoods' Boogie
TTITLE8=Angel Child
TTITLE9=Blues with a Feeling
TTITLE10=Harmonica Blues
TTITLE11=One Room Country Shack
TTITLE12=Hoochie Coochie Man
TTITLE13=I'm gonna leave here in the Morning
TTITLE14=I thought I had myself a good Woman
EXTD=
EXTT0=
EXTT1=
EXTT2=
EXTT3=
EXTT4=
EXTT5=
EXTT6=
EXTT7=
EXTT8=
EXTT9=
EXTT10=
EXTT11=
EXTT12=
EXTT13=
EXTT14=
PLAYORDER=
